<?xml version="1.0" standalone="no"?>
<!DOCTYPE svg PUBLIC "-//W3C//DTD SVG 20010904//EN"
 "http://www.w3.org/TR/2001/REC-SVG-20010904/DTD/svg10.dtd">
<svg version="1.0" xmlns="http://www.w3.org/2000/svg"
 width="950.000000pt" height="950.000000pt" viewBox="0 0 950.000000 950.000000"
 preserveAspectRatio="xMidYMid meet">
<metadata>
Created by potrace 1.14, written by Peter Selinger 2001-2017
</metadata>
<g transform="translate(0.000000,950.000000) scale(0.100000,-0.100000)"
fill="#000000" stroke="none">
<path d="M4858 7500 c-2 -3 -25 -18 -51 -34 -27 -15 -51 -34 -54 -42 -6 -16
-54 -19 -68 -5 -6 5 -30 11 -55 14 -58 7 -118 16 -150 24 -30 7 -42 8 -205 17
-174 9 -261 10 -315 3 -25 -4 -74 -9 -110 -12 -73 -5 -177 -20 -200 -29 -8 -3
-32 -8 -54 -11 -21 -3 -41 -7 -45 -10 -4 -2 -18 -6 -32 -9 -37 -8 -152 -42
-171 -50 -9 -4 -22 -9 -30 -10 -21 -5 -51 -16 -79 -32 -14 -7 -29 -11 -33 -7
-3 3 -6 1 -6 -5 0 -7 -6 -12 -13 -12 -7 0 -35 -11 -63 -24 -74 -36 -82 -37
-96 -17 -19 27 -76 58 -120 66 -29 6 -49 1 -95 -21 -32 -16 -59 -32 -61 -36
-2 -5 -9 -8 -16 -8 -7 0 -23 -22 -35 -48 -18 -38 -22 -62 -19 -112 2 -53 0
-64 -16 -74 -22 -13 -52 -35 -71 -53 -8 -7 -18 -13 -24 -13 -6 0 -11 -5 -11
-11 0 -7 -16 -9 -50 -4 -61 8 -110 -1 -110 -22 0 -10 -6 -14 -19 -10 -37 9
-84 -75 -75 -133 6 -36 -3 -53 -58 -112 -24 -26 -54 -61 -68 -78 -14 -18 -33
-39 -42 -48 -10 -9 -18 -21 -18 -26 0 -5 -8 -16 -18 -25 -9 -9 -31 -36 -47
-61 -17 -25 -34 -50 -40 -57 -25 -31 -31 -40 -67 -105 -7 -13 -15 -25 -18 -28
-9 -9 -41 -65 -58 -102 -9 -21 -20 -38 -24 -38 -5 0 -8 -6 -8 -13 0 -8 -11
-35 -25 -62 -13 -27 -22 -52 -19 -57 3 -4 0 -8 -5 -8 -6 0 -11 -7 -11 -15 0
-8 -9 -37 -21 -63 -30 -68 -34 -79 -59 -162 -12 -41 -26 -84 -31 -95 -4 -11
-10 -33 -13 -50 -3 -16 -10 -52 -16 -80 -6 -27 -15 -75 -20 -105 -4 -30 -11
-75 -15 -100 -8 -47 -44 -89 -77 -90 -24 0 -68 -72 -68 -110 0 -46 42 -105 76
-105 29 -1 49 -39 50 -99 1 -34 4 -81 7 -106 4 -25 9 -70 12 -100 2 -30 9 -82
14 -115 6 -33 13 -84 17 -113 4 -29 11 -55 15 -58 5 -3 9 -18 9 -35 0 -16 4
-37 9 -47 15 -29 31 -87 31 -110 0 -12 5 -22 10 -22 6 0 10 -12 9 -27 -1 -16
4 -41 11 -58 13 -33 13 -34 36 -125 14 -59 48 -137 66 -150 13 -10 46 -110 38
-115 -5 -3 -10 0 -12 6 -9 28 -246 17 -264 -12 -3 -5 20 -21 50 -36 31 -15 56
-32 56 -39 0 -13 -60 -22 -199 -29 -51 -3 -97 -7 -101 -10 -5 -3 -30 -7 -57
-10 -26 -2 -63 -9 -81 -14 -18 -5 -35 -10 -37 -10 -3 0 -18 -2 -33 -5 -15 -4
-36 -8 -47 -10 -51 -10 -110 -29 -132 -43 -12 -8 -23 -12 -23 -9 0 4 -17 -2
-39 -13 -21 -11 -42 -17 -46 -13 -5 4 -5 1 -1 -5 6 -11 1 -15 -20 -12 -3 0
-13 -8 -22 -18 -9 -10 -39 -34 -66 -53 -69 -49 -166 -148 -237 -241 -33 -44
-63 -78 -67 -75 -4 2 -8 -7 -8 -20 -1 -13 -9 -30 -18 -39 -8 -9 -23 -33 -33
-53 -9 -20 -19 -39 -22 -42 -7 -6 -24 -41 -49 -100 -46 -112 -51 -127 -78
-250 -25 -115 -18 -302 13 -326 25 -21 53 -5 54 30 3 96 7 145 13 181 3 22 9
57 11 78 3 21 10 47 15 58 6 10 7 19 3 19 -4 0 -2 5 5 12 7 7 12 24 12 40 0
33 28 121 42 129 5 3 8 8 6 10 -1 2 4 23 11 47 11 33 19 42 32 39 10 -3 18 -2
17 2 -2 9 10 39 46 111 21 42 37 64 46 62 8 -2 12 0 7 4 -4 4 0 16 10 26 9 10
13 18 8 18 -14 0 19 32 43 41 13 5 21 13 17 18 -3 6 10 17 28 26 19 9 44 29
56 45 14 20 30 30 48 30 21 0 23 3 14 14 -10 12 -8 17 11 27 13 7 24 12 26 11
1 -1 11 -2 22 -2 13 0 20 7 20 19 0 13 11 23 35 31 19 6 33 16 30 21 -7 11 40
23 54 14 6 -3 11 -2 11 4 0 16 61 41 100 41 24 0 43 7 54 19 14 15 31 19 78
20 41 0 66 5 78 16 14 12 43 18 114 20 52 2 106 7 118 11 33 11 59 5 91 -22
16 -13 34 -25 40 -25 7 -1 35 -2 62 -4 28 -1 58 -6 69 -10 16 -7 14 -10 -13
-21 -20 -9 -31 -20 -31 -34 0 -32 46 -26 84 13 24 23 40 31 59 29 23 -3 26 -6
16 -23 -14 -27 -2 -58 27 -71 35 -16 29 -35 -13 -43 -86 -15 -114 -27 -111
-49 4 -30 52 -24 98 13 20 16 45 31 56 33 16 2 18 -2 16 -29 -3 -30 3 -38 29
-35 4 1 12 -12 19 -28 7 -17 16 -30 21 -30 5 0 9 -9 9 -20 0 -11 4 -20 9 -20
17 0 22 -34 11 -87 -11 -49 -10 -58 12 -101 13 -26 30 -47 38 -47 8 1 34 -10
57 -23 23 -13 48 -22 55 -21 31 4 49 -2 55 -18 8 -19 223 -237 265 -267 15
-11 24 -24 21 -29 -3 -6 -1 -7 5 -3 6 4 29 -9 50 -29 22 -19 45 -35 51 -35 6
0 11 -4 11 -10 0 -5 4 -10 10 -10 5 0 18 -7 27 -15 10 -8 37 -28 61 -45 37
-27 42 -35 42 -69 0 -33 29 -115 30 -86 0 6 7 1 15 -9 8 -11 15 -16 15 -12 0
5 12 1 26 -9 31 -20 121 -26 132 -8 16 26 66 20 129 -14 35 -19 63 -31 63 -27
0 4 8 1 18 -8 9 -8 30 -20 46 -26 25 -11 29 -25 8 -28 -21 -2 -63 -25 -59 -31
3 -5 -7 -9 -21 -10 -15 0 -28 -6 -30 -12 -2 -6 -12 -11 -23 -11 -10 0 -19 -5
-19 -12 0 -6 -3 -8 -7 -5 -3 4 -12 -1 -20 -11 -8 -9 -12 -11 -8 -5 4 9 1 11
-9 7 -9 -3 -16 -11 -16 -16 0 -6 -7 -7 -16 -4 -10 4 -13 2 -8 -6 5 -8 2 -9 -9
-5 -10 3 -17 2 -17 -3 0 -5 -8 -11 -17 -13 -10 -3 308 -5 706 -6 426 -1 737 3
755 8 29 9 165 30 214 34 12 1 22 5 22 9 0 4 12 8 26 8 26 0 89 15 129 30 11
4 52 17 90 29 139 44 203 70 360 149 61 30 120 60 132 66 13 6 23 14 23 19 0
4 5 7 11 7 12 0 103 60 107 72 2 4 9 8 15 8 7 0 28 14 47 30 31 27 40 30 80
24 25 -4 47 -8 49 -10 6 -6 106 48 114 62 4 7 13 19 20 26 7 7 14 29 15 48 4
69 15 96 56 139 22 24 55 58 71 75 17 18 46 52 65 76 19 25 38 47 42 48 4 2 8
8 8 13 0 8 17 31 45 63 6 6 26 36 44 66 19 30 36 57 40 60 3 3 12 17 20 33 8
15 18 27 23 27 4 0 8 6 8 13 0 6 11 25 25 41 14 16 25 32 25 35 0 3 16 24 35
46 19 22 35 45 35 52 0 6 4 13 8 15 11 4 72 97 72 109 0 5 3 9 8 9 4 0 12 10
18 23 27 56 96 183 104 191 5 5 20 8 34 8 15 0 29 4 32 9 3 5 14 9 25 9 10 0
19 5 19 10 0 6 6 10 13 10 7 0 24 18 39 41 23 35 26 51 26 121 0 87 6 98 55
98 15 0 27 4 27 8 0 4 21 14 47 20 62 17 73 28 73 68 0 50 -33 68 -96 54 -27
-6 -57 -16 -66 -21 -10 -5 -29 -9 -43 -9 -21 0 -24 4 -22 28 2 15 6 34 9 42
14 33 32 134 52 290 18 134 24 574 8 593 -6 7 -10 56 -10 110 0 57 -5 104 -12
112 -8 10 -4 25 20 63 16 27 30 59 30 72 0 19 4 21 26 16 15 -4 40 -10 56 -13
16 -3 32 -11 34 -18 3 -6 15 -11 27 -10 12 1 27 0 32 -4 11 -6 77 -26 135 -40
19 -5 60 -19 90 -31 30 -11 72 -23 92 -25 20 -2 45 -9 55 -14 20 -11 165 -44
174 -39 3 2 13 -3 22 -10 9 -8 21 -11 26 -7 6 3 20 1 32 -6 13 -6 17 -14 11
-18 -5 -3 23 -6 62 -7 40 0 81 -4 92 -8 10 -5 37 -10 59 -12 22 -3 53 -8 70
-12 44 -12 496 -8 520 5 11 6 34 9 50 8 17 -1 44 2 60 7 17 5 48 11 70 14 22
3 49 14 60 24 11 10 25 20 30 21 6 1 17 4 25 6 8 2 18 4 22 4 4 0 48 20 98 45
49 25 94 43 100 39 5 -3 28 7 51 22 23 15 56 36 73 46 17 10 42 30 55 45 13
15 49 54 81 87 56 59 74 93 63 121 -9 25 -42 15 -86 -24 -61 -56 -147 -122
-158 -122 -6 0 -20 -10 -32 -21 -12 -12 -40 -30 -62 -41 -42 -20 -77 -39 -85
-48 -3 -3 -57 -26 -120 -52 -127 -50 -213 -74 -231 -62 -7 4 -9 3 -6 -3 4 -6
-23 -15 -71 -23 -42 -7 -90 -15 -107 -19 -76 -15 -471 -3 -529 16 -12 3 -32 7
-46 8 -28 2 -147 25 -170 33 -8 3 -18 5 -21 4 -4 -1 -53 12 -110 29 -57 17
-113 32 -123 34 -15 4 -183 54 -231 69 -5 2 -14 5 -20 6 -5 2 -39 13 -75 25
-36 12 -89 28 -117 34 -43 11 -53 17 -53 34 0 11 -20 62 -45 114 -25 51 -45
102 -45 114 0 48 -50 89 -109 89 -23 0 -33 7 -44 28 -12 25 -11 30 16 65 21
27 32 54 35 87 4 45 2 49 -34 81 -61 55 -77 76 -101 136 -41 100 -78 123 -138
83 -37 -24 -45 -25 -45 -4 0 9 -8 24 -18 33 -10 9 -33 36 -52 61 -19 25 -48
59 -65 76 -16 18 -51 55 -77 83 -26 28 -50 51 -52 51 -3 0 -27 21 -53 48 -49
48 -86 80 -139 119 -16 12 -50 37 -77 57 -26 20 -51 36 -56 36 -5 0 -11 4 -13
8 -4 12 -87 66 -125 83 -18 8 -33 17 -33 21 0 5 -5 8 -11 8 -6 0 -23 8 -37 18
-15 10 -58 32 -97 49 -38 17 -96 43 -128 57 -103 46 -274 104 -334 113 -42 7
-54 22 -57 75 -5 72 -34 120 -95 156 -22 13 -138 15 -143 2z"/>
</g>
</svg>
